<?xml version="1.0" encoding="utf-8"?>
<!-- Generator: Adobe Illustrator 27.4.0, SVG Export Plug-In . SVG Version: 6.00 Build 0)  -->
<svg version="1.1" id="Livello_1" xmlns="http://www.w3.org/2000/svg" xmlns:xlink="http://www.w3.org/1999/xlink" x="0px" y="0px"
	 viewBox="0 0 500 500" style="enable-background:new 0 0 500 500;" xml:space="preserve">
<path d="M165.4,180.6H141l-0.5,133.8c-72.2-26.9-71.2-101.8-71.9-133.9l-24.1,0c0,12.6-0.2,17.9-0.1,26.9
	c0.7,90.1,59.2,128.1,121,129.7L165.4,180.6L165.4,180.6z"/>
<path d="M281.9,410.9c0.6-1.4,1.1-2.9,1.5-4.4c1.4-6.3-2.5-12.7-7.9-18.2l0,0c-2,0.4-4,0.7-6,0.9c-0.2,0-0.3,0-0.5,0.1
	c-1.8,0.2-3.7,0.5-5.5,0.6c-0.7,0.1-1.4,0.1-2,0.2c-1.4,0.1-2.8,0.2-4.2,0.3c-2.2,0.1-4.4,0.2-6.7,0.2c-43.9,0-83.1-20-109.1-51.5
	c-12.6-2.3-24.8-6.3-36.2-12.1c27.9,51.8,82.5,87,145.4,87C261.2,413.9,271.7,412.8,281.9,410.9"/>
<path d="M295.9,365.7c-6.3-5-19.7-13.2-26.8-17.2c-19.6-11.2-29.4-21.5-28.5-30.3c1.4-13,15.9-16.6,44-15.9l17,0.1v-17.6l-26.6-0.1
	c-16.5-0.1-30.8,0.8-40.4,6.2c-18.4,10.4-19.1,22.5-19.5,30.2c-1,20.7,26.3,39.5,43.3,49.1c8.9,5.1,16.7,10.9,22.1,17
	c5.7,6.5,8.7,13.4,7.2,20.1c-3.9,17.4-22,21.9-26.9,22.1l-45.4,0.1l0,18.7l48.1,0.4c37.3-2.1,62.9-40.4,44.1-70.1
	C304.7,374,300.9,369.7,295.9,365.7"/>
<path d="M180.1,98.6l0.1-6.6c11.3-1,17.4-3.2,25-8.7h45.7V52.6h27.6c3.7,31,24.2,39,41.1,40.1v31.5l0,0v5.8
	c-8.3,0.5-15.1,5.2-19.6,13.2c-2.5,4.4-4.3,9.9-5.2,16.2c-0.8,61-10.3,83.7-44.4,105.2c-19.4-12.7-25.6-20.1-35.7-38.1h36.2v-35.5
	h-45.2c0-11.7-0.2-23.2-2.1-35.7h47.3v-35.8l-58.6-0.5l-12.3-0.1L180.1,98.6L180.1,98.6z M117.5,297.6c-5.7-15.3-8.8-31.9-8.8-49.2
	c0-52.5,28.4-98.3,70.6-122.9v5.4c9.1,0.8,15.8,5.8,19.8,13.2c-15.5,7.7-29,18.7-39.7,32.2h10.1v155.4
	c18.7,18.2,43.5,30.2,71.1,32.5c-15.4-10.9-30.9-26.1-30-43.3c0.3-5.7,0.9-10.5,3.4-15.7c3.8-8,10.6-13.7,18.2-18
	c12-6.8,28.7-6.9,42.6-6.8l30.8,0.1l0,26.1l-21.3-0.1h0c-8.7-0.2-32.6-1-38.2,7.6c-0.9,1.3-1.3,2.8-1.4,4.4
	c-0.4,4.1,2.7,8.5,5.2,11.3c5.5,6.1,13.5,11.3,20.7,15.1c0,0,0.1,0.1,0.1,0.1c4.9,2.9,12.9,7.6,19.8,12.3
	c29.5-11,53.3-33.6,65.9-62.3c-18.3-23.9-27.8-55.8-28.3-93v-26.4h12.6c-10.8-13.4-24.5-24.4-40.1-32c4.4-7.8,11-12.3,19.2-12.6
	l0.5,0v-6.2c0.8,0.4,1.5,0.9,2.3,1.3c0.7,0.4,1.4,0.8,2,1.2c1.5,0.9,3,1.9,4.4,2.8c0.6,0.4,1.3,0.9,1.9,1.3c1,0.7,1.9,1.3,2.8,2
	c0.7,0.5,1.4,1.1,2.1,1.6c1.3,1,2.6,2,3.9,3.1c0.7,0.6,1.4,1.2,2.1,1.8c0.8,0.6,1.5,1.3,2.3,2c0.7,0.6,1.5,1.3,2.2,2
	c1.1,1,2.1,2,3.1,3c0.8,0.8,1.7,1.7,2.5,2.5c0.6,0.6,1.2,1.3,1.8,1.9c0.7,0.8,1.5,1.6,2.1,2.3c0.8,0.9,1.6,1.8,2.4,2.8
	c0.9,1.1,1.8,2.2,2.7,3.3c0.5,0.6,1,1.2,1.5,1.9c0.7,0.9,1.4,1.8,2,2.7c0.6,0.9,1.3,1.8,1.9,2.7c0.9,1.3,1.8,2.6,2.6,3.9
	c0.4,0.6,0.8,1.3,1.2,2c0.6,0.9,1.2,1.9,1.8,2.9l0,0h26.6c-16.5-33.8-44.2-61.2-78.3-77.2v-6.7l-0.5,0c-16.6-1-37.1-8.7-40.6-39.7
	l0-0.5h-29.5l-30-0.2c-2.1,16.2-4.9,21.3-15.1,31l-0.1,0.1c-7.6,5.7-13.5,7.7-25.1,8.7l-0.5,0l-0.1,7.9
	c-55.4,26.7-93.7,83.5-93.7,149.3c0,3.3,0.1,6.6,0.3,9.8C93,274.6,103.6,287.7,117.5,297.6"/>
<path d="M375.8,314.6c-11.5,21.7-28.3,40.1-48.8,53.4c-0.4,0.3-0.9,0.6-1.3,0.9c-1.2,0.8-2.4,1.5-3.6,2.2c-0.6,0.3-1.1,0.7-1.7,1
	c-1.2,0.7-2.4,1.4-3.6,2c-0.6,0.3-1.1,0.6-1.7,0.9c-1.3,0.7-2.5,1.3-3.9,1.9c2.2,3.6,3.7,7.3,5.1,12c1.1,3.5,1.7,7,1.8,10.6
	c33.1-14.9,60.3-40.4,77.6-72.2C388.5,323.6,381.9,319.4,375.8,314.6C375.9,314.6,375.8,314.6,375.8,314.6"/>
<path d="M392,256.6c-0.1,1.6-0.2,3.2-0.4,4.8c-0.1,1.5-0.3,3-0.5,4.5c0,0.1,0,0.2,0,0.3c-0.7,5.8-1.8,11.4-3.2,16.9c0,0,0,0,0.1,0.1
	c5.8,6.8,12.2,12.4,19.4,17c5.4-16.3,8.3-33.7,8.3-51.9c0-13.9-1.7-27.4-5-40.3h-24.2c0,0.1,0.1,0.2,0.1,0.3
	c0.8,2.8,1.6,5.7,2.2,8.6c0.1,0.4,0.2,0.7,0.2,1.1c0.3,1.3,0.5,2.6,0.8,3.9c0.1,0.8,0.3,1.6,0.4,2.4c0.2,1.1,0.4,2.2,0.6,3.4
	c0.3,1.8,0.5,3.7,0.7,5.5c0.1,0.8,0.1,1.5,0.2,2.3c0.1,1.5,0.2,2.9,0.3,4.4c0,0.7,0.1,1.4,0.1,2.1c0.1,2.1,0.2,4.3,0.2,6.4
	s-0.1,4.2-0.2,6.2C392,255.3,392,256,392,256.6"/>
<path d="M431.7,244.8h23.9v-64.9h-123V202c0.7,46.6,15.6,84.9,45.3,108.8c19.5,15.7,45.4,25.1,77.8,26.4l-0.1-17.2
	c-30.2-2.1-53.2-14.4-69-31.9c-20.8-22.9-29.4-54.8-26.2-84.3h24.7l46.6,0L431.7,244.8L431.7,244.8z"/>
<path d="M260.4,193.8c1.1,0,1.4,0.7,1.4,1.8v3.4c0,2.8,1.2,3.3,2.1,6c0.4,1.1-0.3,1.3-1.4,1.3c-1,0-2-0.8-2.7-2.5
	c-0.4-1-0.4-1.6-0.6-2.7C258.5,198.2,258.9,194,260.4,193.8 M279,193.7c1.9-0.3,4.7,2.2,4.7,4.1c0,1.5-0.1,5.4-2.3,5.1
	c-1.3-0.1-3.3-3.8-3.4-4.9c-0.1-1.1-0.5-1.7-0.5-3C277.5,194.3,278.4,193.9,279,193.7 M275.3,207.5c-0.1-0.1-0.3-0.2-0.6-0.5
	c-0.4-0.4-1.5-1.9-1.9-2.5c-0.5-0.7-0.8-2.9-0.9-3.6c-0.7-3.4,1.5-4,3-2.5c0.7,0.7,1,2.2,1.4,3.2c0.4,1,2.2,2.2,2.2,3.6
	S276.5,208,275.3,207.5 M262.2,158c5.3,5.7,9.7,11.9,14.4,18.2l-0.1,11.8l-14.3-16.5L262.2,158L262.2,158z M270.7,135.1
	c0.5,0.3,4.5,0.5,4.5,0.5l-0.1,5.4L270.7,135.1z M277,154.2l-0.1,14.5l-14.9-21.8l0.4-10.2C268.8,140.9,272.5,147.9,277,154.2
	 M267,195.8l-4.7-3.5v-8.1c4.5,2.5,6.5,4.4,9.9,8.3l-0.5,3.6L267,195.8L267,195.8z M268.5,209.1c-1.3,0-2.1-1.4-2.6-2.5
	c-0.4-0.8-0.3-2.1-0.5-3c-0.6-2.2-1.3-5.5,1.2-5.7c0.6-0.1,1.5,0.2,1.5,2.2c0,1,0.5,1.8,0.7,2.8c0.8,3.3,2,2.8,1.9,4.2
	C270.7,208.4,269.9,209.1,268.5,209.1 M262,128.4c6.2,0.5,10.6-2.2,13.8,0v2.9c-1.2,0.9-2.1,1.4-4.7,1.4c-1.9,0-4-0.7-5.6-0.7
	c-1.3,0-2.1-0.1-3.5-0.2L262,128.4L262,128.4z M260.8,106.7C260.8,106.7,260.8,106.7,260.8,106.7c-0.4-1.5-0.6-2.9-0.6-4.2
	c1.2,0.6,3.3,2.7,6.1,3.4c3,0.7,6.6-0.2,8.2-1c1.2-0.6,4.1-4.3,4.1-3.5c0,2.1-0.3,4.2-0.3,6.4c0,0.4,0,0.9,0,1.4l0,0
	c-0.1,2.4-0.6,5.2-1.4,7.1c-0.2,0.6-1.2,5.1-2.4,7.3c-0.7,1.3-2,2.1-2,0.1c0-2.4,0.6-4.7,1.1-7c0.4-1.9,3.1-7.8,0.4-7.6
	c-1.8,0.2-2.8,6.3-3.2,8.1c-0.4,2.1,0,7.6-0.9,7.7c-3.1,0.2-4.9,1-4.9-1.7c0-1.3-1.6-7.4-1.9-8.6
	C262.6,112.2,261.5,109.4,260.8,106.7 M255,199c0,12.1,12.3,15.9,19.6,14.2c6.6-1.5,12-5.9,12-13.9c0-5.5-1.5-11.9-7.1-13.9
	c-0.6-16.6-0.2-33.4-1.7-49.9c-0.1-0.8-0.1-1.6-0.2-2.5h1.6v-6.2l-2-0.3l0-3.5c1.8-3.1,3.5-7.9,4.5-13.1c0,0,0,0,0,0
	c1.8-8.7,2-18.5-1.8-24.3c-0.5-0.7-1-1.3-1.5-1.9c-6.9-6.7-14-5.5-18.3-0.4c-2.5,3-4,7.3-3.9,12.1c0.1,4.4,0.5,7.9,1.1,11.2l0,0
	c1,5,2.5,9.2,4.9,15.1l0,3.1l-1.6,0.1l-0.1,1.7l-1.7,0.1l0,6v0.4l1.8,0c-2.5,8-1.6,45.1-1.8,55.8C256.7,193.3,255.1,193,255,199"/>
<path d="M136.6,226.9c-1.3,7-2,14.2-2,21.5s0.7,13.9,1.9,20.6L136.6,226.9L136.6,226.9z"/>
</svg>
