<svg xmlns="http://www.w3.org/2000/svg" id="Livello_1" data-name="Livello 1" viewBox="0 0 35.4 35.4"><defs><style> .cls-1 { fill: #fff; } .cls-2 { fill: #e30613; } .cls-3 { fill: #0761af; } </style></defs><g id="g5052"><g id="g5030"><path id="path5016" d="M17.7,34.74c-7.45,0-13.51-7.57-13.51-17.04S10.25.53,17.7.53s13.51,7.7,13.51,17.17-6.06,17.04-13.51,17.04"></path><path id="path5018" class="cls-1" d="M17.7,34.74c-7.45,0-13.51-7.57-13.51-17.04S10.25.53,17.7.53s13.51,7.7,13.51,17.17-6.06,17.04-13.51,17.04M17.7,0C10.02,0,3.78,7.94,3.78,17.7s6.24,17.7,13.92,17.7,13.92-7.94,13.92-17.7S25.38,0,17.7,0"></path><path id="path5020" class="cls-3" d="M15.1,16.53v-3.52c-1.82.09-3.51.27-5.19.57v16.82c-.39-.39-.87-.88-1.23-1.33-2.43-3.07-3.78-7.22-3.78-11.68,0-3.67.79-7.13,2.47-9.94-1.78,2.79-2.85,6.34-2.85,10.28,0,9.28,5.91,16.42,13.17,16.42s13.17-7.14,13.17-16.42c0-3.94-1.07-7.49-2.85-10.28,1.68,2.82,2.47,6.28,2.47,9.95,0,4.46-1.34,8.61-3.77,11.68-.35.45-.84.94-1.23,1.33V13.58c-1.69-.3-3.37-.48-5.19-.57l.04,3.12-.04,12.99v4.3c-.86.22-1.7.34-2.6.34s-1.74-.12-2.6-.34v-16.88h0Z"></path><path id="path5022" class="cls-1" d="M27.39,12.48c0-.07-.08-.14-.18-.16-.13-.03-.19-.04-.32-.07,0,.1.01.15.02.24.13.03.19.04.32.07.1.02.17-.01.16-.09M26.87,12.12c.12.02.18.04.3.06.11.02.16-.01.16-.08,0-.07-.07-.13-.17-.15-.12-.02-.18-.04-.3-.06,0,.09.01.14.02.23M27.43,12.28s0,.01,0,.02c.11.05.18.14.19.24.02.18-.13.24-.39.19-.21-.05-.32-.07-.53-.11-.03-.38-.05-.57-.08-.96.21.04.31.06.51.11.25.05.4.18.41.35,0,.09-.04.15-.12.16M25.4,12.23c-.18-.03-.27-.16-.28-.29-.01-.22-.02-.33-.04-.55-.09-.01-.13-.02-.22-.03.01.22.02.33.03.55.01.25.21.46.51.51.31.05.47-.1.45-.34-.02-.22-.02-.33-.04-.55-.09-.02-.13-.02-.22-.04.02.22.02.33.04.55.01.13-.06.23-.24.2M23.62,11.18c-.09-.01-.13-.02-.22-.03.02.38.03.57.05.95.32.04.48.06.8.11,0-.07,0-.1-.01-.17-.23-.03-.35-.05-.58-.08-.02-.31-.02-.47-.04-.78M22.31,11.19c.14.01.26.11.26.11.05-.05.07-.08.12-.13,0,0-.12-.13-.39-.16-.35-.04-.57.17-.56.44.01.27.24.52.6.55.26.03.38-.08.38-.08-.05-.06-.08-.1-.13-.16,0,0-.09.07-.25.06-.21-.02-.36-.17-.37-.35,0-.18.13-.3.34-.28M19.66,11c.17,0,.28.1.28.1.05-.06.08-.08.13-.14,0,0-.12-.13-.41-.14-.36-.02-.58.2-.57.48,0,.27.23.5.59.52.34.01.52-.17.51-.45,0-.04,0-.06,0-.09-.22-.01-.33-.02-.55-.03,0,.06,0,.09,0,.16.12,0,.19,0,.31.01h0c0,.14-.11.23-.28.22-.21,0-.35-.15-.35-.33,0-.18.14-.31.35-.3M17.32,10.79c0,.38,0,.57,0,.95.09,0,.13,0,.22,0,0-.23,0-.35,0-.58.29.23.44.35.73.58.02,0,.03,0,.05,0,0-.38,0-.57,0-.95-.09,0-.13,0-.22,0,0,.23,0,.34,0,.57-.29-.23-.44-.34-.73-.57-.02,0-.03,0-.05,0M16.5,10.81c-.09,0-.13,0-.22,0,0,.38,0,.57-.01.95.09,0,.13,0,.22,0,0-.38,0-.57.01-.95M15.18,11.81c0-.31.01-.47.02-.78.14,0,.21-.01.35-.02,0-.07,0-.1,0-.17-.37.02-.56.03-.93.05,0,.07,0,.1,0,.17.14-.01.21-.02.36-.02,0,.31-.01.47-.02.78.09,0,.13,0,.22-.01M13.23,11.52c.11-.01.16-.02.27-.03.14-.01.22-.07.23-.19,0-.11-.08-.16-.22-.15-.11.01-.16.02-.26.02,0,.13,0,.2-.01.33M13.03,11.04c.2-.02.29-.03.49-.05.28-.03.44.08.44.29,0,.14-.09.24-.22.31,0,0,0,0,0,.01.1.11.15.17.25.28,0,0,0,.01,0,.02-.1,0-.15.01-.25.02-.09-.11-.14-.16-.23-.27-.11.01-.17.02-.28.03,0,.12,0,.17-.01.29-.09,0-.13.01-.22.02.02-.38.02-.57.04-.95M11.7,11.36c-.2.03-.35.18-.36.36-.01.18.13.29.33.27.21-.03.36-.18.37-.36,0-.18-.13-.3-.33-.27M12.26,11.6c-.01.27-.24.52-.6.57-.36.05-.56-.14-.55-.42.02-.27.25-.53.6-.58.36-.05.56.15.55.42M10.01,11.63c-.11.02-.16.03-.26.05-.01.14-.01.2-.02.34.11-.02.16-.03.27-.05.14-.02.23-.09.24-.21,0-.11-.07-.15-.22-.13M10.45,11.71c-.01.22-.21.37-.48.42-.1.02-.16.03-.26.05,0,.11-.01.17-.02.29-.09.02-.13.02-.22.04.03-.38.04-.57.07-.96.2-.04.29-.05.49-.09.27-.05.43.05.42.25M8.31,12.58c-.18.04-.31-.02-.31-.02-.05.07-.08.1-.13.17,0,0,.14.09.43.03.3-.06.44-.22.45-.39.01-.15-.1-.21-.36-.22-.16,0-.22-.02-.21-.08,0-.06.07-.11.18-.13.18-.04.28.02.28.02.05-.07.08-.11.13-.18,0,0-.11-.08-.4-.02-.28.06-.43.2-.44.38-.01.15.11.2.35.21.18,0,.23.03.22.09,0,.06-.06.12-.19.14M18.97,9.28c-.59-.02-1.17-.2-1.66-.51-.26.32-.4.48-.67.81.65.49,1.55.64,2.34.67.96.03,2.28-.3,2.26-1.53-.02-1.07-1.18-1.46-1.99-1.71-.41-.13-1.09-.24-1.13-.67-.03-.27.31-.5.9-.49.52.01,1.04.18,1.46.48.23-.32.35-.47.58-.78-.58-.46-1.33-.57-2.02-.61-.9-.05-2.09.37-2.15,1.48-.06.98,1.1,1.34,1.85,1.53.4.1,1.19.27,1.21.79.01.31-.28.57-.97.55M15.71,5.1c-.43.03-.65.04-1.08.07-.13,1.66-.27,3.36-.4,5.11.47-.04.7-.06,1.17-.09.11-1.74.21-3.44.31-5.1M9.71,8.5c.55-.11.82-.16,1.38-.25.59-.08,1.19-.44,1.27-1.08.08-.62-.54-.83-1.04-.71-.53.09-.8.13-1.33.24-.09.6-.18,1.2-.28,1.8M9.33,11c-.47.1-.71.15-1.18.25.3-1.78.6-3.52.89-5.22.81-.18,1.62-.33,2.43-.47,1.01-.18,2.15.21,2.02,1.42-.13,1.3-1.42,1.97-2.57,2.16-.54.09-.81.14-1.36.25-.08.53-.16,1.06-.24,1.6M23.53,9.03l2.01.27-1.04-2.17-.97,1.9ZM22.82,10.43c-.53-.05-1.33-.11-1.33-.11l2.75-4.85.4.03,2.98,5.67-1.3-.26-.39-.77-2.78-.38s-.21.4-.34.66M29.18,14.54c-3.46-1.22-7.35-1.97-11.48-1.97s-8.02.75-11.48,1.97c3.46-1.04,7.35-1.53,11.48-1.53s8.02.49,11.48,1.53M19.67,31.99s0-.06-.02-.08c-.01-.02-.02-.05-.05-.07-.02-.02-.04-.03-.06-.05-.02-.01-.05-.02-.08-.02s-.06,0-.08.02c-.02.01-.05.02-.07.05-.02.02-.03.04-.05.07-.01.02-.02.05-.02.08s0,.06.02.08c.01.03.02.05.05.07.02.02.04.03.07.04.02,0,.05.02.08.02s.06,0,.08-.02c.02-.01.05-.03.06-.04.02-.02.03-.04.05-.07.01-.03.02-.05.02-.08M19.24,32.76l.27-.42h0s-.03,0-.05.01c-.02,0-.04,0-.06,0-.05,0-.1,0-.14-.03s-.08-.04-.11-.08-.05-.07-.07-.12c-.02-.04-.02-.09-.02-.14,0-.06.01-.11.03-.16.02-.05.05-.09.08-.12.04-.03.08-.06.13-.08.05-.02.1-.03.16-.03s.11,0,.16.03c.05.02.09.04.13.08.04.03.06.07.08.12.02.05.03.1.03.16s-.01.11-.03.16c-.02.05-.05.1-.08.15l-.29.46h-.23ZM18.06,32.19s0,.08,0,.12.01.09.03.13c.02.04.04.08.07.11.03.03.07.04.12.04s.09-.01.11-.04c.03-.03.05-.06.07-.11s.02-.09.03-.13c0-.05,0-.09,0-.12s0-.08,0-.12c0-.05-.01-.09-.03-.13-.02-.04-.04-.08-.07-.11-.03-.03-.07-.04-.11-.04s-.09.01-.12.04c-.03.03-.05.07-.07.11-.02.04-.02.09-.03.13,0,.05,0,.09,0,.12M17.87,32.19c0-.09,0-.17.02-.23.01-.06.03-.12.06-.16.02-.04.05-.08.08-.1.03-.03.06-.05.09-.06.03-.01.06-.02.09-.03.03,0,.05,0,.07,0s.05,0,.07,0c.03,0,.06.01.09.03.03.01.06.03.09.06.03.03.06.06.08.1.02.04.04.1.06.16.02.06.02.14.02.23s0,.17-.02.23c-.01.06-.03.12-.06.16-.02.04-.05.08-.08.1-.03.03-.06.05-.09.06-.03.01-.06.02-.09.03-.03,0-.05,0-.07,0-.02,0-.05,0-.07,0-.03,0-.06-.01-.09-.03-.03-.01-.06-.03-.09-.06-.03-.03-.06-.06-.08-.1-.02-.04-.04-.1-.06-.16-.02-.06-.02-.14-.02-.23M17.29,31.99s0-.06-.02-.08-.02-.05-.04-.07c-.02-.02-.04-.03-.06-.05-.03-.01-.05-.02-.08-.02s-.06,0-.08.02c-.02.01-.05.02-.07.05-.02.02-.03.04-.04.07-.01.02-.02.05-.02.08s0,.06.02.08.02.05.04.07.04.03.07.04c.02,0,.05.02.08.02s.06,0,.08-.02c.02-.01.05-.03.06-.04s.03-.04.04-.07.02-.05.02-.08M16.86,32.76l.27-.42h0s-.03,0-.05.01c-.02,0-.04,0-.06,0-.05,0-.1,0-.14-.03-.04-.02-.08-.04-.11-.08-.03-.03-.05-.07-.07-.12-.02-.04-.02-.09-.02-.14,0-.06.01-.11.03-.16.02-.05.05-.09.08-.12.04-.03.08-.06.13-.08.05-.02.1-.03.16-.03s.11,0,.16.03c.05.02.09.04.13.08.04.03.06.07.08.12.02.05.03.1.03.16s-.01.11-.03.16c-.02.05-.05.1-.08.15l-.29.46h-.24ZM15.85,31.84l-.21.2-.11-.13.34-.29h.18v1.14h-.19v-.92h0Z"></path><path id="path5024" class="cls-2" d="M20.99,22.51c0,2.75-2.23,4.99-4.99,4.99s-4.99-2.23-4.99-4.99,2.23-4.99,4.99-4.99,4.99,2.23,4.99,4.99"></path><path id="path5026" d="M16.01,17.12c-2.97,0-5.39,2.42-5.39,5.39s2.42,5.39,5.39,5.39,5.38-2.42,5.38-5.39c0-2.97-2.42-5.39-5.38-5.39M16.01,17.52c2.75,0,4.99,2.23,4.99,4.99s-2.23,4.99-4.99,4.99-4.99-2.23-4.99-4.99c0-2.75,2.23-4.99,4.99-4.99"></path><path id="path5028" class="cls-1" d="M19.11,21.81c-1.65.5-2.88.57-2.88.57,0,0,.07-1.23.57-2.88-.52-.2-.79-.49-.79-.49,0,0-.27.28-.79.49.5,1.65.57,2.88.57,2.88,0,0-1.23-.07-2.88-.57-.2.52-.48.79-.48.79,0,0,.28.27.48.79,1.65-.5,2.88-.57,2.88-.57,0,0-.07,1.23-.57,2.88.52.2.79.49.79.49,0,0,.27-.28.79-.49-.5-1.65-.57-2.88-.57-2.88,0,0,1.23.07,2.88.57.2-.52.48-.79.48-.79,0,0-.28-.27-.48-.79M19.09,21.64c.22,0,.39-.18.39-.39s-.18-.39-.39-.39-.39.17-.39.39.18.39.39.39M19.09,23.57c-.22,0-.39.18-.39.39s.18.39.39.39.39-.17.39-.39c0-.22-.18-.39-.39-.39M20.15,22.21c-.22,0-.39.17-.39.39s.18.39.39.39.39-.17.39-.39-.18-.39-.39-.39M12.92,23.57c-.22,0-.39.18-.39.39s.17.39.39.39.39-.17.39-.39-.17-.39-.39-.39M12.92,21.64c.22,0,.39-.18.39-.39s-.18-.39-.39-.39-.39.17-.39.39.17.39.39.39M11.86,22.21c-.21,0-.39.17-.39.39s.18.39.39.39.39-.17.39-.39c0-.21-.17-.39-.39-.39M17.36,25.3c-.21,0-.39.18-.39.39s.18.39.39.39.39-.17.39-.39-.18-.39-.39-.39M14.65,25.3c-.21,0-.39.18-.39.39s.18.39.39.39.39-.17.39-.39-.17-.39-.39-.39M16.01,26.36c-.22,0-.39.17-.39.39s.18.39.39.39.39-.18.39-.39c0-.22-.18-.39-.39-.39M14.65,19.91c.22,0,.39-.17.39-.39s-.17-.39-.39-.39-.39.17-.39.39c0,.22.17.39.39.39M17.36,19.91c.22,0,.39-.17.39-.39s-.18-.39-.39-.39-.39.17-.39.39.18.39.39.39M15.62,18.46c0-.22.18-.39.39-.39s.39.18.39.39-.18.39-.39.39-.39-.18-.39-.39"></path></g><polygon id="polygon5032" class="cls-1" points="18.54 19.06 18.15 19.06 18.47 19.38 18.15 20.98 23.91 20.98 24.29 19.06 18.54 19.06"></polygon><path id="path5034" d="M24.78,18.66h-7.59l.68.68.17.17-.28,1.39-.1.48h6.57l.06-.32.38-1.92.1-.48ZM24.29,19.06l-.38,1.92h-5.76l.32-1.6-.32-.32h6.14Z"></path><polygon id="polygon5036" class="cls-1" points="17.16 25.96 16.78 25.96 17.1 26.28 16.78 27.88 22.53 27.88 22.91 25.96 17.16 25.96"></polygon><path id="path5038" d="M15.81,25.56l.68.68.17.17-.28,1.39-.1.48h6.57l.06-.32.38-1.92.1-.48h-.49s-5.75,0-5.75,0h-.38s-.97,0-.97,0ZM22.91,25.96l-.38,1.92h-5.75l.32-1.6-.32-.32h.38s5.75,0,5.75,0Z"></path><polygon id="polygon5040" class="cls-1" points="22.91 18.67 23.3 16.76 20.53 16.76 20.23 16.76 20.15 16.76 20.47 17.08 20.15 18.67 22.91 18.67"></polygon><path id="path5042" d="M23.78,16.36h-4.6l.68.68.17.17-.28,1.39-.06.29h3.58l.03-.13.38-1.92.1-.48ZM23.3,16.76l-.38,1.92h-2.76l.32-1.6-.32-.32h3.15Z"></path><polygon id="polygon5044" class="cls-1" points="17.62 23.66 17.24 23.66 17.55 23.98 17.24 25.58 22.99 25.58 23.37 23.66 17.62 23.66 17.62 23.66"></polygon><path id="path5046" d="M23.86,23.26h-7.59l.68.68.17.17-.28,1.39-.1.48h6.57l.06-.32.38-1.92.1-.48ZM23.37,23.66l-.38,1.92h-5.75l.32-1.6-.32-.32h6.14Z"></path><polygon id="polygon5048" class="cls-1" points="18.08 21.36 17.69 21.36 18.01 21.68 17.69 23.28 23.45 23.28 23.83 21.36 18.08 21.36"></polygon><path id="path5050" d="M24.32,20.96h-7.59l.68.68.17.17-.28,1.39-.1.48h6.57l.06-.32.38-1.92.1-.48ZM23.83,21.36l-.38,1.92h-5.75l.32-1.6-.32-.32h6.14Z"></path></g></svg>